<svg xmlns="http://www.w3.org/2000/svg" enable-background="new 0 0 100 100" viewBox="0 0 100 100"><path d="M50,5C25.19,5,5,25.19,5,50c0,24.81,20.19,45,45,45c24.81,0,45-20.19,45-45C95,25.19,74.81,5,50,5z M50,91
	C27.39,91,9,72.61,9,50S27.39,9,50,9s41,18.39,41,41S72.61,91,50,91z M72.41,34.59c0.78,0.78,0.78,2.05,0,2.83l-28,28
	C44.02,65.8,43.51,66,43,66s-1.02-0.2-1.41-0.59l-14-14c-0.78-0.78-0.78-2.05,0-2.83c0.78-0.78,2.05-0.78,2.83,0L43,61.17
	l26.59-26.59C70.37,33.8,71.63,33.8,72.41,34.59z"/></svg>